<svg xmlns="http://www.w3.org/2000/svg" version="1.1" xmlns:xlink="http://www.w3.org/1999/xlink" xmlns:svgjs="http://svgjs.dev/svgjs" width="1000" height="1000" viewBox="0 0 1000 1000"><rect width="1000" height="1000" fill="#ffffff"></rect><g transform="matrix(0.7,0,0,0.7,149.57575757575756,282.1265587044535)"><svg viewBox="0 0 396 247" data-background-color="#ffffff" preserveAspectRatio="xMidYMid meet" height="623" width="1000" xmlns="http://www.w3.org/2000/svg" xmlns:xlink="http://www.w3.org/1999/xlink"><g id="tight-bounds" transform="matrix(1,0,0,1,0.2400000000000091,-0.09999999999999432)"><svg viewBox="0 0 395.52 247.2" height="247.2" width="395.52"><g><svg></svg></g><g><svg viewBox="0 0 395.52 247.2" height="247.2" width="395.52"><g transform="matrix(1,0,0,1,75.54432,60.9516262184874)"><svg viewBox="0 0 244.43135999999998 125.29674756302519" height="125.29674756302519" width="244.43135999999998"><g><svg viewBox="0 0 244.43135999999998 125.29674756302519" height="125.29674756302519" width="244.43135999999998"><g><svg viewBox="0 0 244.43135999999998 125.29674756302519" height="125.29674756302519" width="244.43135999999998"><g><svg viewBox="0 0 244.43135999999998 125.29674756302519" height="125.29674756302519" width="244.43135999999998"><g id="textblocktransform"><svg viewBox="0 0 244.43135999999998 125.29674756302519" height="125.29674756302519" width="244.43135999999998" id="textblock"><g><svg viewBox="0 0 244.43135999999998 125.29674756302519" height="125.29674756302519" width="244.43135999999998"><g transform="matrix(1,0,0,1,0,0)"><svg width="244.43135999999998" viewBox="1.75 -36.599998474121094 71.4000015258789 36.599998474121094" height="125.29674756302519" data-palette-color="#0080ff"><path d="M1.75 0L11.4 0 11.4-1.95 7.7-1.95Q9.25-5.55 10.5-8.5 11.75-11.45 13.25-15.05L13.25-15.05 27.35-15.05Q28.75-11.75 30.13-8.5 31.5-5.25 32.9-1.95L32.9-1.95 29.25-1.95 29.25 0 38.85 0 38.85-1.95 35-1.95Q31.3-10.7 27.63-19.28 23.95-27.85 20.3-36.6L20.3-36.6Q16.65-27.85 12.95-19.28 9.25-10.7 5.6-1.95L5.6-1.95 1.75-1.95 1.75 0ZM19.8-30.6L19.8-30.6Q19.95-31 20.08-31.3 20.2-31.6 20.3-32.05L20.3-32.05 20.75-30.6 26.5-17 14.1-17Q15.5-20.35 16.98-23.78 18.45-27.2 19.8-30.6ZM42.35 0L52.4 0 52.4-1.95 48.25-1.95 48.25-15.55 52.6-19.7Q56.1-15.25 59.57-10.83 63.05-6.4 66.55-1.95L66.55-1.95 63.5-1.95 63.5 0 73.15 0 73.15-1.95 69.05-1.95Q65.3-6.75 61.55-11.5 57.8-16.25 54-21.05L54-21.05 66.6-33.05 70.9-33.05 70.9-35 61.25-35 61.25-33.05 63.9-33.05 49.1-18.85 48.15-17.8Q48.2-18.2 48.22-18.55 48.25-18.9 48.25-19.3L48.25-19.3 48.25-33.05 52-33.05 52-35 42.35-35 42.35-33.05 46.2-33.05 46.2-1.95 42.35-1.95 42.35 0Z" opacity="1" transform="matrix(1,0,0,1,0,0)" fill="#000000" class="undefined-text-0" data-fill-palette-color="primary" id="text-0"></path></svg></g></svg></g></svg></g></svg></g></svg></g></svg></g></svg></g><g><path d="M0 123.6c0-68.262 55.338-123.6 123.6-123.6 38.946 0 73.685 18.013 96.34 46.162h-7.368c-21.624-24.823-53.466-40.512-88.972-40.512-65.142 0-117.95 52.808-117.95 117.95 0 65.142 52.808 117.95 117.95 117.95 35.506 0 67.348-15.689 88.972-40.512l7.368 0c-22.655 28.149-57.394 46.162-96.34 46.162-68.262 0-123.6-55.338-123.6-123.6z" fill="#000000" stroke="transparent" data-fill-palette-color="tertiary"></path></g></svg></g><defs></defs></svg><rect width="395.52" height="247.2" fill="none" stroke="none" visibility="hidden"></rect></g></svg></g></svg>